<?xml version="1.0" encoding="UTF-8"?>
<svg xmlns="http://www.w3.org/2000/svg" viewBox="0 0 600 200" width="600" height="200">
  <!-- Norte Financial — Full Logo (Dark/Forest on transparent — for light fabrics) -->

  <g transform="translate(10, 10) scale(0.9)">
    <circle cx="100" cy="100" r="90" fill="none" stroke="#0B3D2E" stroke-width="3" opacity="0.25"/>
    <line x1="100" y1="14" x2="100" y2="24" stroke="#0B3D2E" stroke-width="2.5" stroke-linecap="round" opacity="0.5"/>
    <line x1="100" y1="176" x2="100" y2="186" stroke="#0B3D2E" stroke-width="2" stroke-linecap="round" opacity="0.25"/>
    <line x1="14" y1="100" x2="24" y2="100" stroke="#0B3D2E" stroke-width="2" stroke-linecap="round" opacity="0.25"/>
    <line x1="176" y1="100" x2="186" y2="100" stroke="#0B3D2E" stroke-width="2" stroke-linecap="round" opacity="0.25"/>
    <line x1="100" y1="38" x2="100" y2="162" stroke="#0B3D2E" stroke-width="3.5" stroke-linecap="round"/>
    <polygon points="100,28 88,58 100,48 112,58" fill="#0B3D2E"/>
    <polygon points="100,172 88,142 100,152 112,142" fill="#0B3D2E" opacity="0.25"/>
    <line x1="50" y1="100" x2="150" y2="100" stroke="#0B3D2E" stroke-width="1.5" stroke-linecap="round" opacity="0.2"/>
    <path d="M70 70 Q100 85 130 70" stroke="#0B3D2E" stroke-width="1.5" fill="none" opacity="0.3"/>
    <circle cx="100" cy="28" r="7" fill="#0B3D2E"/>
    <circle cx="100" cy="28" r="3.5" fill="#E8F5F0"/>
    <circle cx="100" cy="100" r="5" fill="#0B3D2E"/>
    <circle cx="100" cy="100" r="2.5" fill="#F7F5F1"/>
  </g>

  <text x="210" y="105" font-family="'Playfair Display', Georgia, serif" font-size="64" font-weight="500" fill="#0B3D2E" letter-spacing="-1">Norte</text>
  <text x="210" y="140" font-family="'DM Sans', -apple-system, sans-serif" font-size="16" font-weight="500" fill="#0B3D2E" letter-spacing="6" opacity="0.5">FINANCIAL</text>
</svg>
