<?xml version="1.0" encoding="UTF-8"?>
<svg xmlns="http://www.w3.org/2000/svg" viewBox="0 0 600 200" width="600" height="200">
  <!-- Norte Financial — Full Logo (White on transparent — for dark fabrics) -->

  <g transform="translate(10, 10) scale(0.9)">
    <circle cx="100" cy="100" r="90" fill="none" stroke="#FFFFFF" stroke-width="3" opacity="0.2"/>
    <line x1="100" y1="14" x2="100" y2="24" stroke="#FFFFFF" stroke-width="2.5" stroke-linecap="round" opacity="0.4"/>
    <line x1="100" y1="176" x2="100" y2="186" stroke="#FFFFFF" stroke-width="2" stroke-linecap="round" opacity="0.2"/>
    <line x1="14" y1="100" x2="24" y2="100" stroke="#FFFFFF" stroke-width="2" stroke-linecap="round" opacity="0.2"/>
    <line x1="176" y1="100" x2="186" y2="100" stroke="#FFFFFF" stroke-width="2" stroke-linecap="round" opacity="0.2"/>
    <line x1="100" y1="38" x2="100" y2="162" stroke="#FFFFFF" stroke-width="3" stroke-linecap="round"/>
    <polygon points="100,28 88,58 100,48 112,58" fill="#7EC4A8"/>
    <polygon points="100,172 88,142 100,152 112,142" fill="#FFFFFF" opacity="0.2"/>
    <line x1="50" y1="100" x2="150" y2="100" stroke="#FFFFFF" stroke-width="1.5" stroke-linecap="round" opacity="0.15"/>
    <path d="M70 70 Q100 85 130 70" stroke="#7EC4A8" stroke-width="1.5" fill="none" opacity="0.5"/>
    <circle cx="100" cy="28" r="7" fill="#7EC4A8"/>
    <circle cx="100" cy="28" r="3.5" fill="#FFFFFF"/>
    <circle cx="100" cy="100" r="5" fill="#FFFFFF"/>
    <circle cx="100" cy="100" r="2.5" fill="#0B3D2E"/>
  </g>

  <text x="210" y="105" font-family="'Playfair Display', Georgia, serif" font-size="64" font-weight="500" fill="#FFFFFF" letter-spacing="-1">Norte</text>
  <text x="210" y="140" font-family="'DM Sans', -apple-system, sans-serif" font-size="16" font-weight="500" fill="rgba(255,255,255,0.5)" letter-spacing="6">FINANCIAL</text>
</svg>
